<svg 
version="1.2" 
xmlns="http://www.w3.org/2000/svg" 
viewBox="0 0 2110 2104"
width="55"
height="55">
<style>
.a{stroke:#22c55e;fill:#22c55e;paint-order:stroke fill markers;stroke-linejoin:round;stroke-width:20}
.b{stroke:#000;paint-order:stroke fill markers;stroke-linejoin:round;stroke-width:20}
.c{fill:#fff}
</style>
<path class="a" d="m1059.5 1983c-517.9 0-936.5-418.6-936.5-936.5 0-517.9 418.6-936.5 936.5-936.5 517.9 0 936.5 418.6 936.5 936.5 0 517.9-418.6 936.5-936.5 936.5z"/><path class="b" d="m1055 1861c-447.4 0-809-361.6-809-809 0-447.4 361.6-809 809-809 447.4 0 809 361.6 809 809 0 447.4-361.6 809-809 809z"/><path class="c" d="m305 1158l159-9 1 28 3 18 3 14 8 21 16 27 17 16 18 11 25 6 30 3 30-6 20-14 22-21 9-22 11-26 4-28 2-29-2-36-1-36-2-36v-49l-3-66v-57-62l-1-51 1-39 2-16 18-2h51 49 33v35 18l2 43-2 41 2 22v33 29l-3 37 4 41-1 56 1 59 2 50v33l-5 28-10 30-9 23-12 28-23 27-24 27-36 24-51 23-42 13-27 3h-42l-48-4-25-6-35-14-31-16-20-18-25-26-11-15-19-31-17-47-12-52z"/><path class="c" d="m969 1398l-1-154v-68l-1-40v-29-37l-1-39v-32l-1-30v-28l-2-40 1-30-2-42 1-25-1-40v-23-30l-2-18 29-1h30 36 78l30-2 14 31 13 34 6 21 12 28 11 34 12 31 9 23 11 29 11 31 13 36 19 47 8 23 15 43 15 39 24 62 9-27 16-46 9-33 16-44 12-31 18-53 17-51 15-44 17-50 11-34 13-37 20-64 21-2 19 1 41-2 36-1 26 1h33l31 1 2 23 1 104 1 67v39 37 21 49l1 41 1 36 1 36 1 26v34 33l1 36 1 39 1 32v30l-1 23h-26l-43 1-33-1-51-2-1-66-1-56-1-59-2-96-1-61v-66l-1-48-14 34-14 39-15 41-15 41-8 27-11 30-13 37-10 29-9 27-15 44-17 43-11 35-10 27h-30l-54-1-49 1-16-46-19-49-18-43-22-60-17-42-18-48-24-61-30-78-9-23-1 55 2 48v46l1 89 2 45-1 48 2 50 2 57v19h-16l-24-1-30 1h-16-24z"/>
</svg>