<?xml version="1.0" standalone="no"?>
<!DOCTYPE svg PUBLIC "-//W3C//DTD SVG 20010904//EN"
 "http://www.w3.org/TR/2001/REC-SVG-20010904/DTD/svg10.dtd">
<svg version="1.0" xmlns="http://www.w3.org/2000/svg"
 width="260.000000pt" height="260.000000pt" viewBox="0 0 260.000000 260.000000"
 preserveAspectRatio="xMidYMid meet">
<metadata>
Created by potrace 1.14, written by Peter Selinger 2001-2017
</metadata>
<g transform="translate(0.000000,260.000000) scale(0.100000,-0.100000)"
fill="#000000" stroke="none">
<path d="M1115 2525 c-167 -26 -310 -78 -454 -162 -305 -180 -525 -498 -586
-847 -19 -114 -19 -318 0 -432 44 -251 163 -475 349 -659 232 -231 504 -348
836 -362 507 -21 985 281 1186 749 225 526 60 1138 -401 1482 -258 193 -613
282 -930 231z m1035 -1017 c0 -128 3 -318 7 -421 l6 -188 -84 3 -84 3 -7 254
c-4 139 -11 258 -16 263 -6 6 -13 -2 -20 -19 -10 -27 -103 -290 -154 -435
l-23 -68 -71 0 -71 0 -16 38 c-9 20 -53 131 -97 245 -44 115 -87 218 -95 230
-14 19 -15 -5 -15 -251 l0 -272 -80 0 -79 0 -5 33 c-3 17 -7 206 -9 420 l-4
387 116 0 116 0 89 -243 c49 -133 100 -271 114 -306 l25 -64 14 27 c19 36 193
551 193 570 0 15 2 15 203 24 l47 2 0 -232z m-1090 -91 c0 -363 -3 -382 -84
-462 -68 -69 -127 -89 -241 -83 -66 3 -91 9 -128 31 -84 49 -133 125 -152 239
l-7 36 85 4 86 3 7 -49 c9 -69 53 -116 114 -123 59 -6 107 20 134 71 18 36 19
56 17 323 -1 157 -5 291 -8 299 -4 11 11 14 86 14 l91 0 0 -303z"/>
</g>
</svg>
